<?xml version="1.0" encoding="utf-8"?>
<!-- Generator: Adobe Illustrator 15.1.0, SVG Export Plug-In . SVG Version: 6.00 Build 0)  -->
<!DOCTYPE svg PUBLIC "-//W3C//DTD SVG 1.1//EN" "http://www.w3.org/Graphics/SVG/1.1/DTD/svg11.dtd">
<svg version="1.1" id="Layer_1" xmlns="http://www.w3.org/2000/svg" xmlns:xlink="http://www.w3.org/1999/xlink" x="0px" y="0px"
	 width="1000px" height="1000px" viewBox="0 0 1000 1000" enable-background="new 0 0 1000 1000" xml:space="preserve">
<g>
	<path fill="#484748" d="M218.603,305.073l56.615,1.953c0,0-1.951-187.418-1.951-236.227C272.976-7.777,89.607-29.35,72.183,80.561
		c-4.146,43.586,2.175,813.942,1.951,825.812c-1.951,103.474,173.752,122.99,197.18,23.425c0-173.749,3.904-253.795,3.904-253.795
		h-50.757c-0.192,25.437-0.297,50.911-0.436,76.362c-0.185,33.534,0.924,67.063,1.969,100.579
		c0.297,9.578,0.586,19.176,0.216,28.751c-0.444,11.523-0.626,23.298-0.945,34.83c-0.257,9.266-1.68,19.387-8.744,26.407
		c-7.006,6.971-21.494,11.24-30.96,13.584c-20.001,4.947-49.125-1.934-55.396-23.54c-4.61-15.877-1.78-34.507-1.311-50.744
		c0.59-20.567-0.032-41.054-0.021-61.606c0.042-64.557,0.091-129.11-0.007-193.661c-0.111-73.713,0.06-147.423-0.092-221.134
		c-0.133-65.802-0.356-131.632-0.046-197.434c0.199-42.365,1.107-84.249,1.107-127.687c0.281-3.484-0.536-11.749,1.308-14.634
		c7.613-11.912,25.863-18.183,39.238-19.448c7.842-0.745,15.814,0.109,23.406,2.15c23.097,6.216,28.572,19.561,27.004,41.877
		c-1.445,20.521,0.058,40.91-0.426,61.452c-0.983,41.686-1.683,83.486-1.406,125.189
		C218.981,286.555,218.695,295.831,218.603,305.073z"/>
	<path fill="#484748" d="M275.218,307.025c0,0-1.951-183.514-1.951-236.227"/>
	<polygon fill="#484748" points="353.31,980.563 349.405,18.087 396.26,18.087 489.969,553.013 497.779,553.013 503.635,18.087 
		552.441,18.087 552.441,984.462 501.685,984.462 497.779,771.666 419.687,295.31 405.938,295.277 406.02,980.563 	"/>
	<path fill="#484748" d="M630.533,20.042h56.612l13.668,581.775h11.715l66.378-544.683h15.613l72.23,546.617l12.25-0.5
		l7.279-585.163h42.95c0,0-20.206,951.913-42.95,970.283c-19.785,1.17-29.281,0-29.281,0l-72.235-572.02l-11.717-1.953
		l-68.329,572.018h-29.282C675.435,986.416,619.368,74.598,630.533,20.042z"/>
</g>
</svg>
