<?xml version="1.0" encoding="utf-8"?>
<!-- Generator: Adobe Illustrator 15.1.0, SVG Export Plug-In  -->
<!DOCTYPE svg PUBLIC "-//W3C//DTD SVG 1.1//EN" "http://www.w3.org/Graphics/SVG/1.1/DTD/svg11.dtd" [
	<!ENTITY ns_flows "http://ns.adobe.com/Flows/1.0/">
]>
<svg version="1.1"
	 xmlns="http://www.w3.org/2000/svg" xmlns:xlink="http://www.w3.org/1999/xlink" xmlns:a="http://ns.adobe.com/AdobeSVGViewerExtensions/3.0/"
	 x="0px" y="0px" width="1000px" height="1000px" viewBox="-10.219 -16.509 1000 1000"
	 enable-background="new -10.219 -16.509 1000 1000" xml:space="preserve">
<defs>
</defs>
<path fill="#333333" d="M118.219,0h7.422c47.859,0,84.172,27.985,108.938,83.937C239.516,96.062,242,111.531,242,130.38v8.066h-24
	v-8.066c0-42.623-20.422-74.92-61.234-96.894c-14.438-4.925-26.406-7.404-35.891-7.404c-34.641,0-62.469,18.169-83.5,54.509
	C29.125,96.299,25,114.469,25,135.101v702.573c0,51.147,24.594,85.466,73.781,102.956c3.297,1.8,10.109,2.7,20.453,2.7h7.453
	c35.531,0,63.844-21.532,84.938-64.613c4.531-16.59,6.813-32.06,6.813-46.426H242v10.086c0,49.364-22.5,87.724-67.469,115.081
	c-16.922,8.694-34.656,13.042-53.219,13.042c-49.109,0-86.047-26.677-110.797-80.032C3.5,877.919,0,851.463,0,811.099V160.063
	C0,101.784,10.719,63.22,32.188,44.388C55.703,14.808,84.375,0,118.219,0z"/>
<path fill="#333333" d="M334.226,115.013v854.4h-24V0h22.891l196.109,854.146V1.087h24v968.326h-13.047l-1.875,1.087h-8.078
	L334.226,115.013z"/>
<path fill="#333333" d="M798.107,591.857L754.763,970.5h-24.141L620.404,0h24.156l98.438,856.846l42.109-369.915L728.763,0h26
	l43.344,378.643L842.06,0h23.531l-54.484,486.931l41.484,363.173C864.56,744.295,897.576,460.933,951.654,0h24.141L863.732,970.5
	h-22.297L798.107,591.857z"/>
</svg>
